<svg width="200" height="200" viewBox="0 0 200 200" fill="none" xmlns="http://www.w3.org/2000/svg">
  <defs>
    <linearGradient id="logo_grad" x1="0%" y1="0%" x2="100%" y2="100%">
      <stop offset="0%" stop-color="#9D4EDD" />
      <stop offset="100%" stop-color="#5A189A" />
    </linearGradient>
    <filter id="glow" x="-20%" y="-20%" width="140%" height="140%">
      <feGaussianBlur stdDeviation="5" result="blur" />
      <feComposite in="SourceGraphic" in2="blur" operator="over" />
    </filter>
  </defs>
  <circle cx="100" cy="100" r="90" fill="white" fill-opacity="0.05" stroke="url(#logo_grad)" stroke-width="2" />
  <path d="M100 40C66.8629 40 40 66.8629 40 100C40 133.137 66.8629 160 100 160C133.137 160 160 133.137 160 100C160 66.8629 133.137 40 100 40ZM100 145C75.1472 145 55 124.853 55 100C55 75.1472 75.1472 55 100 55C124.853 55 145 75.1472 145 100C145 124.853 124.853 145 100 145Z" fill="url(#logo_grad)" />
  <path d="M85 85C85 76.7157 91.7157 70 100 70C108.284 70 115 76.7157 115 85V115C115 123.284 108.284 130 100 130C91.7157 130 85 123.284 85 115" stroke="url(#logo_grad)" stroke-width="12" stroke-linecap="round" />
  <circle cx="100" cy="100" r="10" fill="url(#logo_grad)" />
</svg>
